<svg version="1.1" viewBox="0 0 96 96" xmlns="http://www.w3.org/2000/svg" xmlns:xlink="http://www.w3.org/1999/xlink" id="Icons_Soccer" overflow="hidden"><g><path d=" M 48 10 C 27 10 10 27 10 48 C 10 69 27 86 48 86 C 69 86 86 69 86 48 C 86 27 69 10 48 10 Z M 38.9 80.7 L 41.5 79.1 L 33.9 67.4 L 20.4 63.8 L 19.6 66.8 C 16.3 61.8 14.2 55.8 14 49.4 L 16.4 51.4 L 25.2 40.6 L 24.5 26.7 L 21.5 26.9 C 25.3 22.1 30.4 18.3 36.3 16.2 L 35 19 L 48 24 L 61 19 L 59.9 16.1 C 65.8 18.3 70.8 22 74.7 26.8 L 71.7 26.6 L 71 40.5 L 79.8 51.3 L 82.2 49.3 C 81.9 55.7 79.9 61.6 76.6 66.7 L 75.8 63.7 L 62.3 67.3 L 54.7 79 L 57.3 80.6 C 54.4 81.4 51.3 81.9 48.2 81.9 C 45.1 81.9 41.8 81.6 38.9 80.7 Z"/><path d=" M 61 46 L 48 36 L 35 46 L 40 61 L 48 61 L 56 61 Z"/></g></svg>