<svg version="1.1" viewBox="0 0 96 96" xmlns="http://www.w3.org/2000/svg" xmlns:xlink="http://www.w3.org/1999/xlink" id="Icons_LongSleeveShirt" overflow="hidden"><path d=" M 88.8 78.7 L 77.3 24 C 76.6 20.7 74.3 17.9 71.1 16.7 L 58 11 C 57.6 10.8 57.2 10.8 56.8 10.9 C 55.5 11.2 53 15.1 48 15.1 C 43 15.1 40.5 11.1 39.2 10.9 C 38.8 10.8 38.4 10.9 38 11 L 24.9 16.7 C 21.7 17.9 19.4 20.6 18.7 24 L 7.2 78.7 C 6.9 79.9 7.9 81.1 9.2 81.1 L 17.4 81.1 C 18.3 81.1 19.1 80.5 19.3 79.5 L 29 37.1 C 30.3 53.6 27.3 73.6 26.3 79.4 C 26.1 80.4 26.7 81.3 27.6 81.6 C 31 82.7 39.3 85 48 85 C 56.7 85 64.9 82.7 68.4 81.6 C 69.3 81.3 69.9 80.4 69.7 79.4 C 68.7 73.6 65.7 53.5 67 37.1 L 76.7 79.5 C 76.9 80.4 77.7 81.1 78.6 81.1 L 86.8 81.1 C 88.1 81.1 89 80 88.8 78.7 Z"/></svg>