<svg version="1.1" viewBox="0 0 96 96" xmlns="http://www.w3.org/2000/svg" xmlns:xlink="http://www.w3.org/1999/xlink" id="Icons_Glasses" overflow="hidden"><path d=" M 91.4 35.3 C 89.2 34.5 79.6 31.5 72 31.5 C 65.7 31.5 51.3 34.7 48 35.4 C 44.7 34.7 30.3 31.5 24 31.5 C 16.5 31.5 6.9 34.5 4.6 35.3 C 4.3 35.4 4 35.7 4 36.1 L 4 40.2 C 4 40.9 4.2 41.7 4.8 42.1 L 6 43.1 C 6.1 47.1 6.6 53.1 8.4 56 C 10.7 60 17.8 64.5 25 64.5 C 37.7 64.5 43.7 54.9 45.9 46.1 C 46.1 45.2 47 44.5 48 44.5 C 49 44.5 49.8 45.2 50.1 46.1 C 52.4 54.9 58.4 64.5 71 64.5 C 78.2 64.5 85.3 60 87.6 56 C 89.3 53 89.8 47.1 90 43.1 L 91.2 42.2 C 91.8 41.8 92 40.9 92 40.3 L 92 36.2 C 91.9 35.7 91.7 35.4 91.4 35.3 Z M 39.9 45.3 C 38.2 51.3 35.7 59.5 25 59.5 C 20.4 59.5 15.4 57.3 13.3 54.1 C 11.9 51.9 12 46.6 12 42 C 12 40.6 12.9 39.4 14.3 39 C 17.3 38.2 20.9 37.5 24 37.5 C 26.4 37.5 31.2 38.2 35.9 39.1 C 38.8 39.6 40.7 42.5 39.9 45.3 Z M 82.7 54.1 C 80.6 57.3 75.6 59.5 71 59.5 C 60.4 59.5 57.8 51.3 56.1 45.3 C 55.3 42.5 57.2 39.6 60 39.1 C 64.7 38.2 69.5 37.5 71.9 37.5 C 75.1 37.5 78.6 38.2 81.6 39 C 83 39.4 83.9 40.6 83.9 42 C 84 46.6 84.1 51.9 82.7 54.1 Z"/></svg>