<svg version="1.1" viewBox="0 0 96 96" xmlns="http://www.w3.org/2000/svg" xmlns:xlink="http://www.w3.org/1999/xlink" id="Icons_Watch" overflow="hidden"><g><path d=" M 50 20 C 36.2 20 24.8 29.9 22.5 43 L 20 43 C 18.9 43 18 43.9 18 45 L 18 49 C 18 50.1 18.9 51 20 51 L 22.2 51 C 23.7 65.1 35.5 76 50 76 C 65.5 76 78 63.5 78 48 C 78 32.5 65.5 20 50 20 Z M 50 70 C 37.8 70 28 60.2 28 48 C 28 35.8 37.8 26 50 26 C 62.2 26 72 35.8 72 48 C 72 60.2 62.2 70 50 70 Z"/><path d=" M 69.4 22.5 L 66.6 7.3 C 66.3 5.4 64.6 4 62.7 4 L 37.3 4 C 35.4 4 33.7 5.4 33.4 7.3 L 30.6 22.6 C 42.1 13.8 57.9 13.8 69.4 22.5 Z"/><path d=" M 30.6 73.5 L 33.4 88.8 C 33.7 90.7 35.4 92.1 37.3 92.1 L 62.6 92.1 C 64.5 92.1 66.2 90.7 66.5 88.8 L 69.3 73.5 C 57.9 82.2 42.1 82.2 30.6 73.5 Z"/><path d=" M 52 32 L 48 32 L 48 48 C 48 48.5 48.2 49 48.6 49.4 L 59.6 60.4 L 62.4 57.6 L 52 47.2 L 52 32 Z"/></g></svg>